<svg version="1.0" xmlns="http://www.w3.org/2000/svg" width="296" height="296" viewBox="0 0 222 222"><path d="M13.8 75.9c-3.7 1.2-9.9 5-12 7.5-2.8 3.1-2.2 6 2.2 10 4.9 4.4 7.6 5.6 24.3 10.3l13.3 3.7.1 3.3c.1 2 .9 4 2.1 5.1 1.3 1 2.3 3.4 2.6 6.2.3 2.5.5 4.6.5 4.7.1.1 1.6.6 3.4 1.1 2.6.8 3.7.5 6.2-1.3 1.7-1.1 6.1-3.8 9.8-5.8 7.7-4.2 5.5-4.3 27.1 1.7 9.3 2.6 15.8 3.7 23.5 4.2 5.9.3 13 1.4 16.1 2.4 7.9 2.6 25.2 7.1 25.6 6.7.5-.4-20.5-6.7-22.4-6.7-2.1 0-.9-2.3 1.4-2.6 1-.2 4.3-.5 7.2-.6 5.7-.3 8.2-2 8.5-5.7.2-2.6.9-2.6 10.4.3 13.5 4.1 27.5 7.8 27.9 7.4.2-.3-4.9-1.9-11.4-3.7-6.4-1.8-14.3-4.2-17.5-5.3l-5.9-2.1 7.9-2c8.1-2 7.6-2.1 21.3.8 1.4.3-2-1.1-7.5-3-6-2.2-12-3.7-15-3.8-10.4-.2-33.1 2.5-34.8 4.2-.5.5 2 1.9 6.2 3.6 3.9 1.5 7.1 2.9 7.1 3.1 0 .6-15.2-.4-24-1.7-6.9-1-23.7-5.3-24.8-6.3-.5-.6 16.8-6 18.8-5.8.8 0 5.1 1.2 9.5 2.6l8 2.5 10-5.5c11.5-6.3 14.6-6.7 9.2-1.2-2.1 2-3.7 3.9-3.7 4.2 0 .3 1.5.4 3.3.2 1.7-.2 4-.4 4.9-.5 1.4-.1 5.8-6.5 5.8-8.5 0-.3-2.1-1.2-4.7-1.9l-4.6-1.4-9.6 5c-9.8 5-11.1 5.2-17.6 2.7l-3-1.2 4-1.4c3.3-1.2 27.7-7.7 33.5-8.9 3.1-.7 26.6-6.6 27.9-7.1 1.8-.6 1-1.4-2.3-2-1.4-.2-3.8-.9-5.3-1.5-2.7-1.1-9.8-1.2-15.8-.4-1.6.2-6.1.7-10 1-11.7 1-15.5 1.3-27 2.5-36.1 3.7-35.3 3.6-39.7 2.3-5.5-1.6-6.3-1.6-4.5.1.8.8 3.4 2 5.8 2.6 4.6 1.2 8.2 3.7 7.4 5.1-.3.4-2.4.1-4.7-.7-5-1.7-6.8-1.8-6.8-.1 0 .7-.7 2.2-1.5 3.3-1.3 1.8-1.4 1.7-.6-1.1 1.6-5.8-2.1-10.6-6.8-8.8-2.3.8-6.2 0-24.2-5.4-21.4-6.4-30-8-35.1-6.4zm20.4 6.7c6.8 2 15.6 4.5 19.6 5.6 4.5 1.3 6.9 2.4 6.1 2.8-1.5 1-2.5.8-15.2-2.6-5.5-1.4-10.1-2.4-10.3-2.1-.2.2 3.7 1.6 8.8 3.1l9.2 2.8-2.5 2-2.4 1.9 4.5-.5c10.2-1.3 17.5-1.8 17-1.3-.7.7-4.5 1.4-12.5 2.2-3.3.3-7.2.8-8.6 1-1.5.3-10.1-1.8-19.5-4.6-9.3-2.7-18.5-5.3-20.4-5.7l-3.5-.7 3.2-2.3c1.8-1.3 4.6-2.2 6.6-2.2 2.2 0 3.7-.6 4.1-1.5.8-2.1 1.9-2 15.8 2.1zm79.4 6.6c.4.6.3.9-.2.5-.5-.3-3-.2-5.4.3-7.9 1.4-14.6 2-13 1.1.8-.5 4.7-1.2 8.5-1.6 3.9-.4 7.2-.9 7.4-1.1.8-.7 2-.4 2.7.8zm4.7-.5c-.7.2-1.9.2-2.5 0-.7-.3-.2-.5 1.2-.5s1.9.2 1.3.5zm-43 1c.3.5-.6 1.6-1.9 2.6-1.8 1.3-2.4 1.5-2.4.4 0-2.4 3.3-4.7 4.3-3zm-51.6 5.9c-.3.3-1.2.4-1.9.1-.8-.3-.5-.6.6-.6 1.1-.1 1.7.2 1.3.5zM47.1 109c.5 0 .9.4.9 1 0 1.4-1.3 1.2-3.6-.6-1.7-1.4-1.7-1.5-.1-1 1 .3 2.3.6 2.8.6zm14.2 4.7c-.6.2-3-.1-5.4-.6-3.1-.7-4.7-.7-5.8.2-1.2 1-1.3.9-.3-.9 1.1-2.1 1.3-2.1 6.8-.6 3.1.9 5.2 1.8 4.7 1.9zm4.4.9c-.3.3-1.2.4-1.9.1-.8-.3-.5-.6.6-.6 1.1-.1 1.7.2 1.3.5zm126-27.6c1.6 1.5 26.1 8.6 26.9 7.8.2-.2-6-2.2-13.7-4.5-7.8-2.2-13.7-3.7-13.2-3.3z"/><path d="M190.5 117c1.1.5 2.7.9 3.5.9.9 0 .8-.4-.5-.9-1.1-.5-2.7-.9-3.5-.9-.9 0-.8.4.5.9zm-110 4c.3.5 3.9 1.8 8 3.1 4.2 1.2 7.3 2.4 7.1 2.6-.2.3-3.5-.5-7.2-1.6-6.9-2-9.8-2.3-4.7-.3 3.1 1.1 13 4.2 15.3 4.8.8.1 12.5 3.4 26 7.2 13.5 3.8 25.6 7.2 27 7.6 1.7.5 2 .4 1-.2-.8-.6-8.9-3.1-18-5.6-23.2-6.5-32.8-9.5-30.9-9.5.9-.1 4.5.8 8 1.8 3.5 1.1 8.9 2.6 11.9 3.5 3 .8 9.7 2.6 14.9 4 5.2 1.5 9.8 2.5 10.2 2.4.5-.2-13.7-4.5-31.4-9.6-17.7-5.2-33.4-9.7-35-10.2-1.5-.5-2.5-.5-2.2 0zm20.5 7c1.8 1.2.2 1.2-2.5 0-1.3-.6-1.5-.9-.5-.9.8 0 2.2.4 3 .9zm92.8.7c.7.3 1.6.2 1.9-.1.4-.3-.2-.6-1.3-.5-1.1 0-1.4.3-.6.6zm4 1c.7.3 1.6.2 1.9-.1.4-.3-.2-.6-1.3-.5-1.1 0-1.4.3-.6.6zM61.5 131c.6 1 4.3 2.2 21.1 7 18.4 5.3 25.6 7.1 26.2 6.5.3-.3.2-.5-.2-.5s-7.8-2-16.4-4.5c-8.6-2.5-17.5-5-19.7-5.6-2.2-.6-5.7-1.8-7.8-2.5-2.1-.8-3.6-1-3.2-.4zm94.3 14.7c.6.2 1.8.2 2.5 0 .6-.3.1-.5-1.3-.5-1.4 0-1.9.2-1.2.5z"/></svg>