<svg width="139" height="37" fill="none" xmlns="http://www.w3.org/2000/svg"><path d="M102.652 21.61h6.82l-3.3-8.14h-.22l-3.3 8.14zm5.94-10.01l6.27 15.4h-3.168l-1.452-3.74h-8.36L100.43 27h-3.168l6.27-15.4h5.06zM119.819 27h-3.19V11.6h3.19V27zm11.003-15.4c1.1 0 2.083.125 2.948.374.88.235 1.621.587 2.222 1.056a4.552 4.552 0 011.386 1.694c.323.66.484 1.415.484 2.266 0 1.173-.293 2.163-.88 2.97-.586.807-1.43 1.423-2.53 1.848l3.63 5.192h-3.63l-3.234-4.62h-5.126V27h-3.19V11.6h7.92zm-4.73 1.65v7.48h4.73c1.159 0 2.054-.3 2.684-.902.631-.616.946-1.562.946-2.838s-.315-2.215-.946-2.816c-.63-.616-1.525-.924-2.684-.924h-4.73z" fill="#656293"/><path d="M11.412 0c.714.155 1.432.295 2.14.47.561.137 1.11.318 1.665.478.69.198 1.384.388 2.072.594 1.031.309 2.059.633 3.09.943.65.196 1.306.375 1.957.57 1.058.315 2.113.64 3.172.953.713.21 1.434.392 2.146.607.993.3 1.98.626 2.972.93.405.124.821.21 1.227.33.688.203 1.372.422 2.058.63.538.164 1.078.321 1.65.491.293-.191.633-.44.997-.646.95-.534 2.332-.233 3.026.635.75.938.94 1.99.822 3.179-.09.904-.491 1.624-.968 2.34l.069.084c.216-.177.47-.324.64-.538.253-.317.47-.669.656-1.03.194-.377.381-.728.957-.708-.22-.194-.416-.293-.49-.45-.077-.161-.042-.378-.044-.57-.002-.3.167-.4.433-.316.71.221 1.415.462 2.126.682.65.2 1.307.384 1.96.573.406.118.811.233 1.217.347.083.023.17.03.258.045.02-.834-.884-2.155-1.708-2.355-.981-.239-1.93-.609-2.895-.913a5.71 5.71 0 00-.749-.179c-.703-.12-1.163-.614-1.657-1.058-.18-.161-.355-.326-.532-.49l.073-.123c.329.06.668.09.985.188.907.282 1.792.64 2.71.871.531.135 1.066.317 1.664.2.642-.124 1.315-.074 1.971-.14 1.397-.14 2.79-.316 4.188-.455 1.324-.132 2.65-.238 3.977-.35 1.015-.086 2.032-.15 3.046-.251 1.308-.13 2.613-.296 3.92-.433 1.501-.158 3.003-.303 4.505-.45.27-.027.542-.033.811-.06 1.591-.156 3.18-.327 4.773-.473 1.44-.132 2.882-.229 4.322-.358 1.694-.153 3.385-.323 5.078-.485.988-.095 1.977-.182 2.965-.284.358-.036.71-.127 1.07-.154.862-.064 1.679.15 2.5.395 1.082.323 2.184.574 3.275.865.62.166 1.24.337 1.85.533.14.045.246.2.408.34-.131.088-.204.17-.292.191-.784.195-1.573.373-2.356.57-.462.116-.914.268-1.376.385-.522.134-1.053.239-1.576.37-.821.206-1.638.428-2.459.635-.523.132-1.052.244-1.575.376-.92.232-1.837.483-2.759.707-.886.216-1.78.401-2.666.614-.8.193-1.596.403-2.393.609-.809.209-1.616.423-2.424.632-.92.238-1.838.484-2.762.707-.9.217-1.81.397-2.709.616a36.97 36.97 0 00-2.007.553c-.711.216-1.415.46-2.12.695-.705.234-1.405.482-2.114.704-.684.216-1.378.403-2.065.611-.068.02-.118.1-.176.153.055.054.102.14.169.16.96.283 1.927.548 2.887.836a32.01 32.01 0 012.046.671c.404.152.669-.136.968-.254.688-.271 1.346-.62 2.011-.95a167.09 167.09 0 002.264-1.144c.921-.473 1.84-.95 2.757-1.43.67-.35 1.344-.695 2.002-1.065.535-.302.998-.015 1.48.133.735.226 1.468.458 2.2.693.427.137.855.273 1.273.432.259.098.288.264.14.521-.66 1.154-1.299 2.32-1.95 3.48-.154.277-.342.51-.702.535-1.443.101-2.884.215-4.327.313-.107.007-.22-.069-.33-.106.042-.11.054-.25.13-.324a610.709 610.709 0 013.677-3.502c.07-.067.177-.097.316-.171-.06-.09-.099-.23-.175-.255-.548-.176-1.072-.349-1.654.008-.77.47-1.598.845-2.396 1.27-.497.265-.98.556-1.477.821-1.073.575-2.152 1.138-3.226 1.71-.866.462-1.723.94-2.597 1.387a.866.866 0 01-.583.067c-.921-.274-1.828-.595-2.747-.874-.934-.285-1.878-.54-2.816-.81-.949-.274-1.9-.541-2.843-.83-.467-.144-.896-.003-1.325.125-.325.096-.633.249-.95.377l.022.134 1.987.683-.026.094c-.416-.114-.826-.256-1.248-.338-.773-.151-1.502-.48-2.351-.11-.91.397-1.912.582-2.867.883-1.082.34-2.157.706-3.263 1.152.438.16.868.34 1.313.472.75.222 1.512.403 2.265.617.753.215 1.5.449 2.25.674.764.229 1.523.47 2.292.682.482.132.974.231 1.467.321.659.12 1.32.224 1.983.322 1.54.226 3.077.485 4.624.653 1.591.173 3.192.266 4.79.372 1.493.099 2.987.17 4.48.25a.749.749 0 00.376-.073c-.454-.203-.902-.42-1.362-.605-.748-.303-1.506-.582-2.257-.877-.582-.227-1.16-.463-1.74-.694-.49-.194-.977-.393-1.47-.576-.214-.08-.446-.111-.662-.189a1.834 1.834 0 01-.5-.256c-.042-.033-.01-.276.043-.3.64-.29 1.27-.646 1.945-.81.846-.204 1.73-.245 2.6-.356.28-.036.56-.082.842-.107 1.364-.121 2.729-.228 4.092-.357 1.656-.156 3.31-.333 4.964-.493 1.053-.102 2.106-.198 3.16-.282.42-.033.844-.045 1.265-.032 1.112.034 2.039.639 3.042 1.01a85.307 85.307 0 004.717 1.573c.394.12.799.201 1.193.318.782.231 1.56.477 2.34.713.307.092.615.175.923.263.726.208 1.456.404 2.177.627.568.176 1.126.383 1.689.577l-.025.12c-.458-.09-.92-.164-1.373-.27-.497-.116-.985-.265-1.478-.395-.904-.24-1.808-.482-2.714-.715-.422-.11-.85-.19-1.272-.301-.816-.216-1.629-.448-2.444-.668-.358-.097-.717-.195-1.08-.27-.784-.162-1.537-.567-2.377-.307-.306.094-.619.17-.928.259-.789.225-1.575.458-2.367.675-.382.105-.775.173-1.16.27-.773.193-1.545.39-2.314.596-.306.082-.603.194-.97.314.117.08.203.172.307.204.402.123.811.225 1.216.34.43.12.859.246 1.287.373.465.138.928.279 1.391.42.441.135.88.278 1.321.408.418.122.841.225 1.258.35.76.226 1.516.464 2.275.695.328.1.658.197.99.29.652.182 1.309.351 1.96.542.797.233 1.587.49 2.385.724.688.202 1.384.38 2.073.582.786.23 1.567.476 2.353.709.7.207 1.404.398 2.103.608.51.153 1.013.327 1.521.488.36.114.722.218 1.083.33.141.043.28.094.42.142l-.027.097c-.668-.161-1.337-.324-2.006-.484-.432-.103-.87-.188-1.299-.305-.454-.123-.9-.28-1.352-.41-.333-.097-.67-.175-1.005-.26-.757-.194-1.516-.375-2.269-.583-.776-.215-1.545-.458-2.319-.683-.38-.11-.767-.2-1.15-.306-.863-.24-1.724-.485-2.588-.724-.32-.09-.645-.166-.967-.252-.718-.193-1.438-.377-2.151-.584-.735-.214-1.46-.464-2.195-.676-.738-.213-1.484-.395-2.224-.598-.382-.104-.76-.227-1.14-.338-.786-.23-1.568-.471-2.36-.676-.226-.059-.48-.009-.767-.009.046.116.05.176.082.2.43.327.284.732.145 1.124-.216.616-.43 1.233-.688 1.831-.087.202-.285.376-.47.51-.126.09-.317.108-.481.125-1.244.128-2.488.255-3.734.366-1.041.092-2.086.158-3.128.243-.559.046-.784.401-.584.918a.313.313 0 00.189.159c.74.201 1.49.372 2.226.592.99.296 1.966.643 2.957.937.75.222 1.514.391 2.27.592.297.079.59.173.883.269.74.243 1.478.498 2.222.733.365.114.748.177 1.114.291.54.169 1.074.362 1.611.545l-.03.115c-.4-.085-.802-.165-1.201-.256-.525-.12-1.05-.242-1.57-.38-.803-.212-1.601-.44-2.404-.655-.396-.106-.799-.185-1.194-.293-.901-.244-1.796-.511-2.7-.745-.794-.206-1.597-.375-2.395-.57-.286-.069-.567-.16-.85-.247-.747-.228-1.506-.425-2.237-.697-.836-.311-1.644-.698-2.473-1.033-.16-.065-.355-.05-.535-.052-1.655-.02-3.314.014-4.966-.069-1.425-.071-2.844-.268-4.264-.425-.74-.082-1.489-.15-2.214-.31-1.24-.276-2.466-.616-3.696-.936-.721-.188-1.44-.384-2.156-.587-.702-.199-1.4-.414-2.1-.614-.777-.221-1.556-.432-2.333-.65a40.602 40.602 0 01-.96-.286c-.709-.221-1.415-.453-2.127-.666a47.57 47.57 0 00-1.971-.549c-.18-.046-.383-.007-.602-.007.064.303-.101.41-.35.535-.881.442-1.736.937-2.61 1.395a57.08 57.08 0 01-2.194 1.101 12.065 12.065 0 00-2.679 1.695c-.45.38-.927.73-1.39 1.098-.282.225-.58.132-.88.058-.72-.179-1.448-.329-2.156-.544-.387-.119-.635-.427-.688-.858-.076-.614-.165-1.225-.24-1.839-.095-.794-.149-1.595-.296-2.378-.038-.198-.337-.397-.56-.502-1.419-.674-1.91-2.548-1.449-3.848.095-.267.392-.313.57-.047.48.717 1.236.923 1.99 1.131.175.048.449.179.535-.17.095-.386-.018-.611-.344-.709-1.352-.404-2.7-.821-4.054-1.218-.701-.206-1.416-.367-2.117-.572-.996-.29-1.985-.606-2.98-.902-.712-.213-1.43-.407-2.144-.618-.787-.233-1.57-.48-2.357-.711-.677-.2-1.368-.358-2.034-.586-.981-.337-1.97-.67-2.913-1.097a11.284 11.284 0 01-3.215-2.212A20.863 20.863 0 01.406 7.665C.203 7.417.13 7.06 0 6.754V5.667c.39-1.189 1.208-2.02 2.244-2.659.845-.522 1.704-1.024 2.553-1.54.77-.467 1.58-.83 2.466-1.02.61-.13 1.214-.297 1.82-.448h2.329zm3.495 11.323c.141.245.883.474 1.242.37-.358-.369-.829-.288-1.255-.356-.049-.062-.086-.158-.149-.178-.586-.19-1.178-.368-1.768-.55-.583-.18-1.166-.366-1.751-.542-.379-.113-.765-.205-1.143-.323-.424-.133-.842-.282-1.262-.428-.163-.057-.32-.135-.484-.188-.378-.122-.76-.235-1.14-.352l-.041.145c.4.14.803.27 1.2.42.35.13.688.297 1.042.418.854.292 1.712.573 2.573.844.378.118.782.164 1.147.31.58.231 1.16.412 1.79.41zM34.55 9.39c-.912.115-1.779.23-2.647.332-.743.086-1.49.146-2.232.235-.986.117-1.97.251-2.955.379l-1.608.21c-.256.032-.513.073-.77.085a.36.36 0 01-.253-.116c-.024-.027.035-.181.095-.223a79.322 79.322 0 011.584-1.075c.26-.172.528-.333.793-.498-1.126-.391-2.204-.675-3.28-.963-.67-.18-1.34-.356-2.005-.552-.722-.214-1.435-.459-2.157-.672-.663-.196-1.334-.362-1.997-.557-.086-.025-.145-.143-.217-.219.09-.06.177-.165.272-.172.204-.016.42-.01.617.037.636.154 1.264.337 1.898.496.82.207 1.646.39 2.464.603.88.23 1.755.484 2.632.726.667.183 1.343.34 2 .553.864.282 1.713.475 2.64.298.673-.128 1.373-.11 2.06-.159a.696.696 0 00-.366-.282c-.42-.12-.848-.21-1.268-.329-.653-.186-1.303-.383-1.952-.582-.699-.214-1.391-.449-2.093-.65-.765-.22-1.545-.393-2.307-.622-1.24-.373-2.469-.784-3.707-1.163-1.152-.352-2.31-.686-3.467-1.02-1.049-.304-2.108-.574-3.15-.902-1.279-.403-2.586-.47-3.907-.403-.31.016-.635.075-.936.32.444.171.94.028 1.24.584-.432.146-.815.35-1.216.397-.97.112-1.95.15-2.925.22-.128.01-.283-.013-.38.05a78.18 78.18 0 00-2.357 1.578c-.147.103-.223.307-.385.542.404.071.691.131.982.17.473.065.969.046 1.417.186 1.171.366 2.32.805 3.481 1.2.4.137.816.226 1.222.344.478.14.953.291 1.432.43.702.202 1.409.392 2.11.597.444.13.88.286 1.323.415.715.208 1.435.4 2.151.605 1.098.314 2.194.633 3.29.948.667.191 1.35.339 1.996.581.47.176.915.3 1.42.217.62-.103 1.246-.173 1.87-.252 1.266-.159 2.531-.321 3.798-.467.628-.072 1.262-.091 1.89-.166 1.138-.136 2.272-.308 3.41-.44.491-.057.52-.055.49-.559-.006-.09-.024-.177-.04-.295zm31.67-3.483l-.025-.164c-.289.016-.58.016-.865.051-1.196.147-2.39.308-3.584.457-1.302.162-2.604.32-3.907.47-.398.046-.802.037-1.198.086-1.15.143-2.295.31-3.445.451-.41.05-.827.036-1.237.08a536.97 536.97 0 00-4.374.506c-.107.013-.21.07-.314.108.06.098.1.23.186.288.147.098.331.222.49.208a57.943 57.943 0 003.112-.322c1.504-.207 3-.465 4.503-.683.853-.124 1.713-.2 2.567-.319 1.082-.151 2.162-.321 3.242-.491.938-.148 1.874-.313 2.813-.456.267-.04.544-.012.812-.05.41-.058.817-.145 1.225-.22zM25.518 19.663c-.2-.712-.033-.896.668-.75.779.162 1.556.331 2.336.491 1.03.212 2.067.4 3.093.632 1.268.286 2.526.614 3.793.907.205.047.43.006.646.006a3.143 3.143 0 00-.786-.34c-.45-.13-.908-.234-1.357-.366-.725-.214-1.445-.447-2.17-.66-.726-.213-1.457-.404-2.183-.616-.71-.209-1.415-.433-2.123-.65l-1.582-.48c-.242-.074-.459-.105-.534.229-.102.46-.22.917-.327 1.377-.021.093-.022.19-.034.305l.56-.085zM35.77 9.759c.428-.41.791-.863 1.253-1.168.46-.306 1.02-.465 1.537-.688-.557-.803-1.435-.749-2.001-.34-.694.502-1.038 1.408-.79 2.196zm-17.829 2.57l.036-.132-1.01-.312-.044.162 1.018.282z" fill="#656293"/><path d="M38.11 23.61c.474.106.952.203 1.424.322.471.12.938.257 1.404.396.772.231 1.539.481 2.314.704.738.211 1.485.39 2.224.598.395.11.78.256 1.172.376.33.1.663.188.996.28.717.2 1.436.39 2.15.6.688.202 1.369.432 2.056.638.428.128.865.226 1.292.354.773.232 1.54.489 2.314.713.748.216 1.504.402 2.256.606.258.07.514.151.77.23.723.22 1.444.444 2.167.665.378.115.757.227 1.136.34.833.245 1.665.492 2.5.736.305.089.614.167.922.251.714.196 1.43.384 2.141.591.738.215 1.47.45 2.205.674.318.097.637.194.957.284.726.203 1.456.392 2.18.605.723.214 1.44.453 2.16.676.318.1.637.191.957.28.753.21 1.51.405 2.26.628 1.185.353 2.366.723 3.549 1.089.044.013.077.06.095.171-.333-.064-.67-.117-1-.196a105.04 105.04 0 01-2.294-.582c-.703-.188-1.402-.394-2.103-.59-.492-.138-.984-.273-1.476-.412a833.64 833.64 0 01-2.255-.64c-.357-.102-.712-.212-1.07-.309-.73-.195-1.464-.371-2.19-.577-.776-.22-1.544-.467-2.318-.695-.319-.094-.643-.17-.966-.25-.47-.117-.944-.226-1.413-.349-.272-.07-.539-.16-.808-.241-.735-.223-1.469-.448-2.205-.666-.356-.105-.718-.19-1.075-.293-.886-.254-1.768-.524-2.658-.767-.741-.201-1.494-.358-2.234-.563-.741-.205-1.47-.451-2.207-.67-.69-.204-1.386-.389-2.077-.593-.785-.231-1.567-.474-2.351-.711-.316-.095-.633-.184-.948-.28-.844-.258-1.687-.52-2.532-.776-.67-.204-1.349-.385-2.013-.607-.909-.304-1.806-.64-2.71-.958-.868-.306-1.737-.607-2.605-.91-.043-.015-.084-.033-.126-.05l.032-.122zm.913-.955c.396.086.793.163 1.186.259a35.85 35.85 0 011.514.4c.676.195 1.346.409 2.019.613.413.126.827.248 1.24.372.773.23 1.544.466 2.317.692.392.114.792.203 1.182.32.798.241 1.588.506 2.39.736.751.216 1.516.388 2.268.602.712.203 1.413.444 2.122.655.43.128.869.228 1.302.347.37.102.74.207 1.108.32.453.14.9.294 1.354.43.785.237 1.57.47 2.359.694.74.21 1.485.4 2.224.612.42.121.828.276 1.245.404.377.116.76.21 1.138.322.831.247 1.66.503 2.492.75.318.094.645.16.964.256.883.263 1.76.547 2.645.798.763.216 1.542.376 2.302.602.684.203 1.35.47 2.028.694.351.116.713.199 1.068.303.451.133.9.27 1.35.411.039.012.064.067.065.194-.707-.187-1.412-.382-2.122-.559-.782-.195-1.573-.357-2.352-.562-.766-.201-1.52-.445-2.282-.657-.43-.12-.871-.204-1.302-.323-.453-.125-.897-.28-1.348-.41-.406-.118-.818-.215-1.225-.328-.837-.23-1.672-.465-2.508-.696-.346-.095-.694-.181-1.04-.273-1.364-.36-2.731-.708-4.09-1.085-.727-.202-1.437-.46-2.158-.68-.33-.102-.668-.173-1-.265-.68-.188-1.36-.374-2.037-.572-.787-.23-1.57-.471-2.356-.705-.33-.098-.663-.19-.996-.28-1.025-.28-2.057-.538-3.076-.842-.957-.285-1.898-.624-2.85-.93-.657-.21-1.324-.396-1.982-.609-.582-.188-1.158-.398-1.737-.6-.661-.232-1.327-.452-1.981-.703-.495-.191-.974-.424-1.46-.639l.02-.067zm18.921 13.561c-1.024-.252-2.047-.506-3.07-.757-.361-.088-.723-.169-1.084-.255-1.147-.276-2.297-.535-3.437-.835-1.052-.277-2.092-.602-3.14-.897-.74-.209-1.487-.398-2.229-.601-.321-.088-.64-.187-.959-.285-1.295-.395-2.586-.804-3.886-1.185-.762-.223-1.542-.386-2.304-.607-.97-.282-1.931-.592-2.895-.895-.67-.21-1.343-.412-2.005-.646a74.486 74.486 0 01-2.333-.884c-.37-.145-.728-.317-1.091-.477l.044-.133c.365.089.73.172 1.094.269.47.124.938.252 1.405.39.737.218 1.47.45 2.207.667.418.122.843.217 1.26.341.76.226 1.515.466 2.274.697.34.103.683.206 1.027.296.447.116.9.213 1.346.33.234.062.46.153.692.225.731.23 1.462.458 2.194.684.33.102.66.201.992.293.703.194 1.411.373 2.113.574.69.198 1.373.417 2.06.624.418.125.838.242 1.257.367.82.243 1.64.49 2.462.733.319.095.64.183.961.271.727.201 1.462.377 2.18.606.728.232 1.437.523 2.16.772.238.081.494.111.742.165l-.037.153zm37.9-30.471c2.69.638 5.326 1.484 7.984 2.243 2.653.757 5.283 1.593 7.923 2.395l-.027.123c-.193-.032-.387-.056-.577-.097-.398-.085-.794-.18-1.192-.269-.499-.11-1.001-.208-1.498-.332-.472-.117-.936-.267-1.406-.39-.46-.12-.926-.217-1.386-.334a229.73 229.73 0 01-2.715-.697 133.78 133.78 0 01-2.22-.616 12.121 12.121 0 01-.807-.261c-.96-.346-1.922-.686-2.873-1.053-.425-.164-.826-.386-1.239-.581l.033-.131z" fill="#656293"/></svg>