<?xml version="1.0" standalone="no"?>
<!DOCTYPE svg PUBLIC "-//W3C//DTD SVG 20010904//EN"
 "http://www.w3.org/TR/2001/REC-SVG-20010904/DTD/svg10.dtd">
<svg version="1.0" xmlns="http://www.w3.org/2000/svg"
 width="222.000000pt" height="222.000000pt" viewBox="0 0 222.000000 222.000000"
 preserveAspectRatio="xMidYMid meet">
<metadata>
Created by potrace 1.14, written by Peter Selinger 2001-2017
</metadata>
<g transform="translate(0.000000,222.000000) scale(0.100000,-0.100000)"
fill="#000000" stroke="none">
<path d="M138 1461 c-37 -12 -99 -50 -120 -75 -28 -31 -22 -60 22 -100 49 -44
76 -56 243 -103 l133 -37 1 -33 c1 -20 9 -40 21 -51 13 -10 23 -34 26 -62 3
-25 5 -46 5 -47 1 -1 16 -6 34 -11 26 -8 37 -5 62 13 17 11 61 38 98 58 77 42
55 43 271 -17 93 -26 158 -37 235 -42 59 -3 130 -14 161 -24 79 -26 252 -71
256 -67 5 4 -205 67 -224 67 -21 0 -9 23 14 26 10 2 43 5 72 6 57 3 82 20 85
57 2 26 9 26 104 -3 135 -41 275 -78 279 -74 2 3 -49 19 -114 37 -64 18 -143
42 -175 53 l-59 21 79 20 c81 20 76 21 213 -8 14 -3 -20 11 -75 30 -60 22
-120 37 -150 38 -104 2 -331 -25 -348 -42 -5 -5 20 -19 62 -36 39 -15 71 -29
71 -31 0 -6 -152 4 -240 17 -69 10 -237 53 -248 63 -5 6 168 60 188 58 8 0 51
-12 95 -26 l80 -25 100 55 c115 63 146 67 92 12 -21 -20 -37 -39 -37 -42 0 -3
15 -4 33 -2 17 2 40 4 49 5 14 1 58 65 58 85 0 3 -21 12 -47 19 l-46 14 -96
-50 c-98 -50 -111 -52 -176 -27 l-30 12 40 14 c33 12 277 77 335 89 31 7 266
66 279 71 18 6 10 14 -23 20 -14 2 -38 9 -53 15 -27 11 -98 12 -158 4 -16 -2
-61 -7 -100 -10 -117 -10 -155 -13 -270 -25 -361 -37 -353 -36 -397 -23 -55
16 -63 16 -45 -1 8 -8 34 -20 58 -26 46 -12 82 -37 74 -51 -3 -4 -24 -1 -47 7
-50 17 -68 18 -68 1 0 -7 -7 -22 -15 -33 -13 -18 -14 -17 -6 11 16 58 -21 106
-68 88 -23 -8 -62 0 -242 54 -214 64 -300 80 -351 64z m204 -67 c68 -20 156
-45 196 -56 45 -13 69 -24 61 -28 -15 -10 -25 -8 -152 26 -55 14 -101 24 -103
21 -2 -2 37 -16 88 -31 l92 -28 -25 -20 -24 -19 45 5 c102 13 175 18 170 13
-7 -7 -45 -14 -125 -22 -33 -3 -72 -8 -86 -10 -15 -3 -101 18 -195 46 -93 27
-185 53 -204 57 l-35 7 32 23 c18 13 46 22 66 22 22 0 37 6 41 15 8 21 19 20
158 -21z m794 -66 c4 -6 3 -9 -2 -5 -5 3 -30 2 -54 -3 -79 -14 -146 -20 -130
-11 8 5 47 12 85 16 39 4 72 9 74 11 8 7 20 4 27 -8z m47 5 c-7 -2 -19 -2 -25
0 -7 3 -2 5 12 5 14 0 19 -2 13 -5z m-430 -10 c3 -5 -6 -16 -19 -26 -18 -13
-24 -15 -24 -4 0 24 33 47 43 30z m-516 -59 c-3 -3 -12 -4 -19 -1 -8 3 -5 6 6
6 11 1 17 -2 13 -5z m234 -134 c5 0 9 -4 9 -10 0 -14 -13 -12 -36 6 -17 14
-17 15 -1 10 10 -3 23 -6 28 -6z m142 -47 c-6 -2 -30 1 -54 6 -31 7 -47 7 -58
-2 -12 -10 -13 -9 -3 9 11 21 13 21 68 6 31 -9 52 -18 47 -19z m44 -9 c-3 -3
-12 -4 -19 -1 -8 3 -5 6 6 6 11 1 17 -2 13 -5z"/>
<path d="M1917 1350 c16 -15 261 -86 269 -78 2 2 -60 22 -137 45 -78 22 -137
37 -132 33z"/>
<path d="M1905 1050 c11 -5 27 -9 35 -9 9 0 8 4 -5 9 -11 5 -27 9 -35 9 -9 0
-8 -4 5 -9z"/>
<path d="M805 1010 c3 -5 39 -18 80 -31 42 -12 73 -24 71 -26 -2 -3 -35 5 -72
16 -69 20 -98 23 -47 3 31 -11 130 -42 153 -48 8 -1 125 -34 260 -72 135 -38
256 -72 270 -76 17 -5 20 -4 10 2 -8 6 -89 31 -180 56 -232 65 -328 95 -309
95 9 1 45 -8 80 -18 35 -11 89 -26 119 -35 30 -8 97 -26 149 -40 52 -15 98
-25 102 -24 5 2 -137 45 -314 96 -177 52 -334 97 -350 102 -15 5 -25 5 -22 0z
m205 -70 c18 -12 2 -12 -25 0 -13 6 -15 9 -5 9 8 0 22 -4 30 -9z"/>
<path d="M1938 933 c7 -3 16 -2 19 1 4 3 -2 6 -13 5 -11 0 -14 -3 -6 -6z"/>
<path d="M1978 923 c7 -3 16 -2 19 1 4 3 -2 6 -13 5 -11 0 -14 -3 -6 -6z"/>
<path d="M615 910 c6 -10 43 -22 211 -70 184 -53 256 -71 262 -65 3 3 2 5 -2
5 -4 0 -78 20 -164 45 -86 25 -175 50 -197 56 -22 6 -57 18 -78 25 -21 8 -36
10 -32 4z"/>
<path d="M1558 763 c6 -2 18 -2 25 0 6 3 1 5 -13 5 -14 0 -19 -2 -12 -5z"/>
</g>
</svg>
